<?xml version="1.0" encoding="UTF-8"?>
<svg id="Vrstva_1" data-name="Vrstva 1" xmlns="http://www.w3.org/2000/svg" viewBox="0 0 232 198.82">
  <defs>
    <style>
      .cls-1 {
        fill: #c0c7d2;
      }

      .cls-1, .cls-2, .cls-3, .cls-4, .cls-5 {
        stroke-width: 0px;
      }

      .cls-2 {
        fill: #1f262f;
      }

      .cls-3 {
        fill: #dce0e6;
      }

      .cls-4 {
        fill: #838fa0;
      }

      .cls-5 {
        fill: #9daabb;
      }
    </style>
  </defs>
  <path class="cls-2" d="M116,51.89l109.73,63.77c8.38,4.87,8.36,16.98-.03,21.82l-103.39,59.66c-3.9,2.25-8.7,2.25-12.6,0L6.31,137.48c-8.39-4.84-8.41-16.95-.03-21.82l109.73-63.77h0Z"/>
  <polygon class="cls-4" points="116 170.57 196.26 123.93 116 77.62 35.74 123.93 116 170.57 116 170.57"/>
  <polygon class="cls-1" points="35.74 123.93 116 77.62 116 0 35.5 46.17 35.74 123.93 35.74 123.93"/>
  <polygon class="cls-5" points="116 77.62 196.26 123.93 196.49 46.17 116 0 116 77.62 116 77.62"/>
  <polygon class="cls-5" points="116 170.57 35.74 123.93 35.5 46.17 116 92.67 116 170.57 116 170.57"/>
  <polygon class="cls-4" points="196.26 123.93 116 170.57 116 92.67 196.49 46.17 196.26 123.93 196.26 123.93"/>
  <polyline class="cls-1" points="130.84 135.16 211.09 88.85 196.49 46.17 116 92.67"/>
  <polyline class="cls-3" points="116 92.67 35.5 46.17 21.18 88.52 101.44 135.16"/>
  <polygon class="cls-4" points="103.15 134.42 116 95.53 116 92.67 101.44 135.16 103.15 134.42"/>
  <polygon class="cls-5" points="129.05 134.38 116 95.53 116 92.67 130.84 135.16 129.05 134.38"/>
  <g>
    <polygon class="cls-2" points="37.43 123.25 36.97 122.99 36.97 118.99 37.43 119.26 37.43 123.25"/>
    <polygon class="cls-2" points="37.95 123.55 37.64 123.38 37.64 119.38 37.95 119.56 37.95 123.55"/>
    <polygon class="cls-2" points="38.16 123.68 38.08 123.63 38.08 119.63 38.16 119.68 38.16 123.68"/>
    <polygon class="cls-2" points="38.6 123.93 38.29 123.75 38.29 119.76 38.6 119.93 38.6 123.93"/>
    <polygon class="cls-2" points="39 124.16 38.91 124.11 38.91 120.12 39 120.17 39 124.16"/>
    <polygon class="cls-2" points="39.32 124.34 39.13 124.23 39.13 120.24 39.32 120.35 39.32 124.34"/>
    <polygon class="cls-2" points="39.94 124.7 39.85 124.65 39.85 120.66 39.94 120.71 39.94 124.7"/>
    <polygon class="cls-2" points="40.37 124.95 40.15 124.82 40.15 120.83 40.37 120.96 40.37 124.95"/>
    <polygon class="cls-2" points="40.58 125.07 40.5 125.02 40.5 121.03 40.58 121.08 40.58 125.07"/>
    <polygon class="cls-2" points="40.87 125.24 40.68 125.13 40.68 121.14 40.87 121.25 40.87 125.24"/>
    <polygon class="cls-2" points="41.2 125.43 41.11 125.38 41.11 121.39 41.2 121.44 41.2 125.43"/>
    <polygon class="cls-2" points="41.39 125.54 41.3 125.49 41.3 121.5 41.39 121.55 41.39 125.54"/>
    <polygon class="cls-2" points="42.17 125.99 41.67 125.7 41.67 121.71 42.17 122 42.17 125.99"/>
    <polygon class="cls-2" points="39.61 124.51 39.53 124.46 39.53 120.47 39.61 120.52 39.61 124.51"/>
  </g>
</svg>