<?xml version="1.0" encoding="UTF-8"?>
<svg id="Vrstva_1" data-name="Vrstva 1" xmlns="http://www.w3.org/2000/svg" viewBox="0 0 232 199.13">
  <defs>
    <style>
      .cls-1 {
        fill: #c0c7d2;
      }

      .cls-1, .cls-2, .cls-3, .cls-4, .cls-5 {
        stroke-width: 0px;
      }

      .cls-2 {
        fill: #1f262f;
      }

      .cls-3 {
        fill: #dce0e6;
      }

      .cls-4 {
        fill: #838fa0;
      }

      .cls-5 {
        fill: #9daabb;
      }
    </style>
  </defs>
  <path class="cls-2" d="M116,52.19l109.73,63.77c8.38,4.87,8.36,16.98-.03,21.82l-103.39,59.66c-3.9,2.25-8.7,2.25-12.6,0L6.31,137.78c-8.39-4.84-8.41-16.95-.03-21.82l109.73-63.77h0Z"/>
  <polygon class="cls-1" points="35.74 124.24 116 77.93 116 .3 35.5 46.47 35.74 124.24 35.74 124.24"/>
  <polygon class="cls-5" points="116 77.93 196.26 124.24 196.49 46.47 116 .3 116 77.93 116 77.93"/>
  <polygon class="cls-5" points="116 170.88 35.74 124.24 35.5 46.47 116 92.98 116 170.88 116 170.88"/>
  <polygon class="cls-4" points="196.26 124.24 116 170.88 116 92.98 196.49 46.47 196.26 124.24 196.26 124.24"/>
  <polygon class="cls-1" points="116 92.98 196.49 46.47 116 0 35.5 46.47 116 92.98 116 92.98"/>
  <polygon class="cls-3" points="123.71 50.3 123.85 50.38 163.48 27.51 149.19 19.26 68.93 65.79 83.03 73.93 123.71 50.3"/>
  <polygon class="cls-1" points="72.86 84.91 75.43 84.15 78.75 88.97 82.8 88.97 83.03 73.93 68.93 65.79 68.93 83.47 72.1 83.32 72.86 84.91"/>
  <g>
    <polygon class="cls-2" points="37.42 123.56 36.96 123.29 36.96 119.3 37.42 119.56 37.42 123.56"/>
    <polygon class="cls-2" points="37.94 123.86 37.63 123.68 37.63 119.69 37.94 119.86 37.94 123.86"/>
    <polygon class="cls-2" points="38.15 123.98 38.06 123.93 38.06 119.94 38.15 119.99 38.15 123.98"/>
    <polygon class="cls-2" points="38.59 124.23 38.28 124.05 38.28 120.06 38.59 120.24 38.59 124.23"/>
    <polygon class="cls-2" points="38.99 124.46 38.9 124.41 38.9 120.42 38.99 120.47 38.99 124.46"/>
    <polygon class="cls-2" points="39.31 124.65 39.12 124.54 39.12 120.54 39.31 120.65 39.31 124.65"/>
    <polygon class="cls-2" points="39.92 125 39.84 124.95 39.84 120.96 39.92 121.01 39.92 125"/>
    <polygon class="cls-2" points="40.36 125.25 40.14 125.13 40.14 121.13 40.36 121.26 40.36 125.25"/>
    <polygon class="cls-2" points="40.57 125.38 40.48 125.33 40.48 121.33 40.57 121.38 40.57 125.38"/>
    <polygon class="cls-2" points="40.86 125.54 40.67 125.43 40.67 121.44 40.86 121.55 40.86 125.54"/>
    <polygon class="cls-2" points="41.19 125.73 41.1 125.68 41.1 121.69 41.19 121.74 41.19 125.73"/>
    <polygon class="cls-2" points="41.38 125.84 41.29 125.79 41.29 121.8 41.38 121.85 41.38 125.84"/>
    <polygon class="cls-2" points="42.16 126.29 41.66 126.01 41.66 122.01 42.16 122.3 42.16 126.29"/>
    <polygon class="cls-2" points="39.6 124.82 39.52 124.77 39.52 120.77 39.6 120.82 39.6 124.82"/>
  </g>
</svg>