<svg width="692" height="536" viewBox="0 0 692 536" fill="none" xmlns="http://www.w3.org/2000/svg">
<g clip-path="url(#clip0_40_204)">
<path opacity="0.2" d="M9.03048 292.86L303.87 121.939C309.457 118.699 316.344 118.699 321.931 121.939L682.969 331.23C695.01 338.205 695.01 355.661 682.969 362.636L388.13 533.558C382.543 536.798 375.656 536.798 370.069 533.558L9.03048 324.267C-3.01016 317.292 -3.01016 299.836 9.03048 292.86Z" fill="#4B535E"/>
<path d="M352.875 1.93408L577.228 133.217C582.009 136.01 584.946 141.147 584.946 146.708L528.717 350.596C527.115 355.359 522.805 357.849 518.506 355.951C520.89 356.12 522.985 354.791 524.466 351.901L580.708 148.715C580.708 143.082 577.722 137.871 572.882 135.043L348.564 3.77156C342.881 0.447173 333.441 8.99387 333.441 8.99387C336.367 0.338375 345.916 -2.18816 352.887 1.93408H352.875Z" fill="#4B535E"/>
<path d="M103.26 311.586L270.686 217.923C274.213 215.94 279.788 215.928 283.124 217.899L518.482 355.564C521.829 357.523 521.685 360.702 518.157 362.673L350.732 456.336C347.204 458.306 341.629 458.318 338.294 456.36L102.935 318.694C99.588 316.736 99.7325 313.556 103.26 311.574V311.586Z" fill="#C0C7D2"/>
<path d="M173.157 281.364L271.733 226.082C272.636 225.575 273.744 225.587 274.635 226.107L499.277 357.51C501.24 358.659 501.216 361.5 499.229 362.612L400.653 417.893C399.75 418.401 398.642 418.389 397.751 417.869L173.108 286.465C171.146 285.317 171.17 282.464 173.157 281.364Z" fill="#F2F4F6"/>
<path d="M191.567 363.361L236.394 338.277C240.753 335.836 247.64 335.823 251.794 338.253L307.157 370.639C311.299 373.057 311.118 376.998 306.772 379.439L261.944 404.511C257.585 406.953 250.698 406.965 246.556 404.536L191.193 372.15C187.051 369.732 187.22 365.791 191.579 363.349L191.567 363.361Z" fill="#838FA0"/>
<path d="M191.567 365.138L236.394 340.054C240.753 337.612 247.64 337.6 251.794 340.03L307.157 372.416C311.299 374.833 311.118 378.774 306.772 381.216L261.944 406.288C257.585 408.73 250.698 408.742 246.556 406.312L191.193 373.927C187.051 371.509 187.22 367.568 191.579 365.126L191.567 365.138Z" fill="white"/>
<path d="M101.141 317.122C101.322 317.388 101.551 317.642 101.803 317.884C101.972 318.041 338.294 456.384 338.294 456.384C341.846 458.463 347.168 458.33 350.732 456.36L518.157 362.697C519.927 361.705 520.854 360.4 520.89 359.106L520.481 364.969C520.433 366.263 519.518 367.568 517.736 368.56L350.31 462.223C346.734 464.217 341.436 464.338 337.872 462.247C337.872 462.247 103.188 324.908 103.044 324.811C100.515 323.239 100.515 320.761 100.515 320.761V315.261C100.744 316.47 100.876 316.723 101.045 316.989C101.069 317.038 101.105 317.086 101.141 317.134V317.122Z" fill="#4B535E"/>
<path d="M347.577 3.19135L572.87 135.03C577.722 137.871 580.696 143.069 580.696 148.703L524.454 351.889C523.395 355.455 520.83 357.341 517.94 355.649L278.861 215.747C277.525 214.961 276.706 213.534 276.706 211.987L332.948 10.2753C334.477 3.8925 341.605 -0.302276 347.577 3.19135Z" fill="#838FA0"/>
<path d="M572.484 146.224L517.916 335.182L288.096 202.195L341.87 12.2817L572.484 146.224Z" fill="#F2F4F6"/>
<path d="M573.062 145.233L573.845 145.68L518.614 336.923L286.76 202.751L341.171 10.541L573.074 145.233H573.062ZM517.218 333.454L571.136 146.768L342.568 14.0226L289.445 201.651L517.218 333.454Z" fill="white"/>
<path d="M84.0437 322.442C84.6698 320.072 86.0785 317.594 88.3542 315.164C96.5659 306.424 112.664 301.589 124.308 304.357C127.547 305.131 130.075 306.412 131.893 308.044L133.386 307.597L134.952 312.855H134.927C135.879 316.567 134.506 320.943 130.521 325.186C122.309 333.926 106.21 338.761 94.5672 335.993C88.9081 334.651 85.3681 331.75 84.14 328.123H84.1159L82.5386 322.865L84.0316 322.417L84.0437 322.442Z" fill="#1B2A00"/>
<path d="M122.838 299.425C134.482 302.193 137.263 311.526 129.051 320.266C120.84 329.006 104.741 333.841 93.0981 331.073C81.4547 328.293 78.6734 318.972 86.8851 310.232C95.0968 301.492 111.195 296.657 122.838 299.425Z" fill="#3E5B00"/>
<path d="M95.205 317.304C99.5397 318.32 105.09 316.893 107.619 314.137C110.147 311.369 108.679 308.322 104.356 307.307C100.021 306.304 94.4706 307.718 91.942 310.486C89.4135 313.242 90.8825 316.301 95.205 317.304Z" fill="#F2F4F6"/>
<path d="M112.64 324.787L126.968 309.132C121.129 307.766 113.182 310.172 109.22 314.499C105.259 318.827 106.788 323.433 112.64 324.787Z" fill="#F2F4F6"/>
<path d="M505.454 190.252V221.827L505.406 221.852C505.707 230.87 501.986 239.477 492.751 246.67C466.298 267.208 373.441 321.861 373.441 321.861L328.77 293.284C328.77 293.284 340.1 286.695 355.356 277.834C383.049 261.72 423.819 238.05 433.258 232.731C434.511 232.018 435.558 231.245 436.449 230.398C436.883 229.987 437.292 229.552 437.653 229.117C437.834 228.887 438.015 228.645 438.159 228.428C439.905 225.926 440.459 223.024 440.134 220.05C440.025 219.059 439.833 218.08 439.544 217.077C439.243 215.928 438.797 214.78 438.267 213.643C438.039 213.136 437.786 212.592 437.509 212.108C437.256 211.625 436.991 211.165 436.69 210.67C436.365 210.101 436.004 209.533 435.618 209.001C435.281 208.518 434.932 208.058 434.571 207.599C433.861 206.644 433.066 205.725 432.247 204.855C431.838 204.42 431.404 204.009 430.995 203.598C430.634 203.235 430.284 202.909 429.899 202.57C429.815 202.498 429.719 202.413 429.622 202.341C428.346 201.24 427.021 200.237 425.721 199.451C414.872 192.839 390.418 186.794 355.921 206.777C340.919 215.493 322.075 226.397 305.543 235.947C284.099 248.374 266.592 258.48 266.592 258.48L220.271 233.59C220.271 233.59 232.589 226.808 250.084 217.173C261.667 210.803 275.538 203.163 289.553 195.426C309.878 184.22 330.54 172.82 345.133 164.696C371.261 150.202 413.656 151.181 445.468 161.553C451.946 163.657 457.966 166.135 463.324 169C464.673 169.713 465.973 170.439 467.225 171.176C467.273 171.2 467.321 171.261 467.37 171.261C468.598 171.974 469.742 172.711 470.861 173.485C479.23 179.191 486.731 185.852 492.571 192.948L505.454 190.228V190.252Z" fill="#3E5B00"/>
<path d="M305.17 203.719L289.541 195.45C275.538 203.187 261.655 210.827 250.072 217.198C232.565 226.82 220.259 233.614 220.259 233.614L266.58 258.505C266.58 258.505 284.087 248.387 305.531 235.971V203.912L305.17 203.731V203.719Z" fill="#4B535E"/>
<path d="M505.455 190.252V190.397C505.455 199.052 501.65 207.273 492.752 214.187C466.299 234.75 373.441 289.415 373.441 289.415L355.356 277.834L328.77 260.826C328.77 260.826 407.624 214.961 429.611 202.353C429.707 202.304 429.815 202.244 429.888 202.195C431.248 201.41 432.38 200.757 433.259 200.273C434.511 199.584 435.559 198.786 436.45 197.94C436.883 197.529 437.293 197.094 437.654 196.659C437.834 196.429 438.015 196.199 438.16 195.958C439.905 193.455 440.459 190.554 440.134 187.58C440.026 186.589 439.833 185.61 439.544 184.619C439.243 183.47 438.798 182.31 438.268 181.185C438.039 180.666 437.786 180.134 437.509 179.65C437.256 179.167 436.992 178.707 436.691 178.212C436.365 177.643 436.004 177.087 435.619 176.543C435.282 176.06 434.933 175.588 434.571 175.129C433.861 174.186 433.066 173.255 432.248 172.385C431.838 171.95 431.405 171.539 430.995 171.128C430.634 170.765 430.285 170.438 429.9 170.1C428.551 168.891 427.118 167.852 425.722 166.981C414.873 160.381 390.418 154.324 355.922 174.307C340.823 183.059 321.799 194.084 305.183 203.682C283.907 216.001 266.592 226.022 266.592 226.022L250.085 217.161L220.272 201.132C220.272 201.132 237.177 191.799 259.476 179.541C287.158 164.31 323.063 144.484 345.133 132.238C379.245 113.307 441.073 120.718 470.874 141.027C472.608 142.199 474.318 143.432 475.979 144.714C476.509 145.125 477.051 145.536 477.557 145.935C478.098 146.37 478.604 146.781 479.146 147.216C479.664 147.627 480.169 148.062 480.675 148.498C481.229 148.957 481.795 149.44 482.361 149.936C482.794 150.347 483.204 150.734 483.625 151.109C484.107 151.544 484.6 152.015 485.058 152.438C485.539 152.91 485.997 153.333 486.455 153.804C487.346 154.699 488.237 155.594 489.103 156.524C489.561 157.032 490.019 157.552 490.512 158.06C491.295 158.954 492.09 159.885 492.836 160.804C493.221 161.287 493.595 161.747 493.98 162.242C494.726 163.222 495.461 164.189 496.147 165.168L497.135 166.618C497.472 167.102 497.773 167.598 498.074 168.081C498.712 169.085 499.302 170.052 499.832 171.055C500.903 172.941 501.794 174.839 502.565 176.749C504.19 180.762 505.19 184.812 505.394 188.789C505.419 189.273 505.443 189.768 505.443 190.252H505.455Z" fill="#6E9C00"/>
<path d="M266.58 226.046V258.492L220.259 233.602V201.156L250.072 217.185L266.58 226.046Z" fill="#838FA0"/>
<path d="M429.899 170.148V202.607C439.062 210.706 445.985 225.539 433.258 232.744C418.629 241.012 328.77 293.296 328.77 293.296L373.44 321.874C373.44 321.874 466.286 267.208 492.739 246.658C501.974 239.489 505.707 230.882 505.406 221.852H505.43V190.252L492.558 192.96C486.707 185.888 479.217 179.215 470.849 173.509C468.525 171.926 465.985 170.439 463.312 169.012C460.699 168.879 459.11 168.807 459.11 168.807L429.887 170.148H429.899Z" fill="#6E9C00"/>
<path d="M373.44 321.861C373.44 321.861 393.223 310.22 417.112 295.665V263.207L398.003 253.064C367.288 270.859 328.77 293.271 328.77 293.271L373.44 321.849V321.861Z" fill="#4B535E"/>
<path d="M328.77 260.838V293.284L373.44 321.862V289.416L328.77 260.838Z" fill="#838FA0"/>
<path d="M475.966 144.738L429.899 170.136C439.062 178.236 445.985 193.081 433.258 200.274C418.629 208.542 328.77 260.826 328.77 260.826L373.44 289.403C373.44 289.403 466.286 234.75 492.739 214.188C517.639 194.834 502.649 165.083 475.966 144.726V144.738Z" fill="#97D700"/>
<path d="M266.58 226.046C266.58 226.046 283.906 216.037 305.17 203.707L289.541 195.438L259.464 179.565C237.164 191.835 220.259 201.156 220.259 201.156L250.072 217.185L266.58 226.046Z" fill="#C0C7D2"/>
<path d="M373.44 289.415C373.44 289.415 393.223 277.774 417.112 263.219L368.793 237.579C347.24 250.091 328.77 260.838 328.77 260.838L373.44 289.415Z" fill="#C0C7D2"/>
<path opacity="0.65" d="M492.751 246.67C495.93 244.204 498.398 241.544 500.337 238.788C504.021 233.517 505.623 227.775 505.418 221.852H505.442V221.828H505.454V190.252C505.454 189.889 505.43 189.527 505.406 189.164V189.043C505.406 188.959 505.406 188.874 505.406 188.789C505.394 188.584 505.358 188.39 505.346 188.185C505.298 187.544 505.237 186.916 505.153 186.275C505.105 185.912 505.057 185.562 504.985 185.199C504.888 184.619 504.78 184.026 504.647 183.446C504.575 183.12 504.515 182.805 504.431 182.479C504.214 181.597 503.961 180.69 503.684 179.795C503.66 179.711 503.624 179.626 503.588 179.541C503.311 178.683 502.998 177.849 502.661 176.991C502.625 176.906 502.6 176.821 502.564 176.737C502.492 176.568 502.408 176.398 502.336 176.217C502.095 175.649 501.842 175.069 501.577 174.5C501.408 174.126 501.228 173.751 501.047 173.364C500.746 172.736 500.409 172.119 500.072 171.502C499.988 171.357 499.915 171.2 499.831 171.043C499.807 170.995 499.771 170.946 499.759 170.91C499.217 169.931 498.651 168.964 498.037 167.997C497.748 167.537 497.447 167.078 497.134 166.607L496.833 166.159C496.749 166.038 496.664 165.905 496.568 165.785L496.147 165.156C495.978 164.914 495.797 164.684 495.629 164.467C495.256 163.947 494.87 163.439 494.485 162.92C494.316 162.702 494.148 162.472 493.979 162.243C493.799 162.001 493.606 161.771 493.425 161.541C493.377 161.481 493.329 161.433 493.281 161.36C493.137 161.179 492.98 160.997 492.835 160.804C492.559 160.465 492.27 160.127 491.981 159.789C491.764 159.523 491.547 159.269 491.318 159.003C491.041 158.688 490.789 158.362 490.524 158.048C490.042 157.54 489.572 157.02 489.115 156.512C488.718 156.101 488.32 155.69 487.911 155.292C487.658 155.038 487.417 154.772 487.164 154.53C486.924 154.288 486.695 154.046 486.454 153.805C486.117 153.454 485.756 153.128 485.394 152.777C485.382 152.765 485.37 152.753 485.358 152.741C485.25 152.644 485.154 152.547 485.057 152.439C484.588 152.003 484.106 151.544 483.624 151.109C483.191 150.734 482.782 150.347 482.36 149.936C481.794 149.453 481.228 148.957 480.674 148.498C480.157 148.063 479.651 147.627 479.145 147.216C478.615 146.781 478.098 146.37 477.556 145.935C477.05 145.524 476.508 145.113 475.979 144.714C474.317 143.433 472.607 142.2 470.873 141.027C441.073 120.718 379.244 113.32 345.133 132.238C342.183 133.87 338.956 135.66 335.561 137.533L377.92 162.146C379.425 163.016 380.147 164.817 379.665 166.498L379.425 196.852C398.93 191.425 415.944 193.48 425.721 199.439C427.021 200.237 428.346 201.229 429.622 202.329C424.902 205.266 423.674 205.738 429.622 202.329C433.788 199.73 435.679 199.065 437.111 197.36C437.461 196.949 438.075 196.877 438.544 197.155L478.784 220.703C480.373 221.634 481.132 223.532 480.614 225.309L480.987 254.914C485.43 251.856 489.777 248.943 492.763 246.634L492.751 246.67Z" fill="#C8D4F6"/>
<path d="M255.189 320.302C253.696 317.86 251.3 315.563 247.929 313.605C235.804 306.581 216.154 306.581 204.029 313.605C200.657 315.551 198.261 317.86 196.756 320.302H194.938V326.721H194.974C195.143 331.194 198.141 335.63 204.029 339.051C216.154 346.075 235.804 346.075 247.929 339.051C253.817 335.642 256.815 331.194 256.983 326.721H257.02V320.302H255.189Z" fill="#6E9C00"/>
<path d="M204.029 307.572C191.904 314.608 191.904 325.996 204.029 333.019C216.154 340.043 235.804 340.043 247.929 333.019C260.054 325.996 260.054 314.596 247.929 307.572C235.804 300.549 216.154 300.549 204.029 307.572Z" fill="#97D700"/>
<path d="M235.226 328.015V327.99C238.128 327.785 241.09 326.975 243.462 325.609C248.399 322.744 248.941 318.489 244.666 316.107C241.295 314.233 235.937 314.076 231.397 315.491C233.805 312.88 233.42 309.845 230.049 307.971C225.774 305.59 218.285 305.977 213.348 308.854C210.242 310.655 208.869 313 209.351 315.092L209.628 328.148L232.975 328.027C233.589 328.051 234.203 328.051 234.817 328.027H235.238L235.226 328.015Z" fill="#F2F4F6"/>
<path d="M461.759 379.319C464.48 377.446 468.104 376.164 472.583 375.705C488.694 374.049 509.44 383.369 518.916 396.546C521.553 400.208 522.998 403.775 523.431 407.063L525.358 407.933L522.335 414.715L522.311 414.691C520.024 419.333 514.762 422.597 506.935 423.407C490.837 425.063 470.091 415.742 460.603 402.566C455.991 396.171 454.908 390.054 456.846 385.255H456.81L459.832 378.461L461.759 379.331V379.319Z" fill="#6E9C00"/>
<path d="M521.745 390.175C531.233 403.339 525.863 415.367 509.765 417.036C493.667 418.704 472.921 409.371 463.433 396.207C453.944 383.042 459.315 371.014 475.413 369.346C491.511 367.678 512.257 377.01 521.745 390.175Z" fill="#97D700"/>
<path d="M479.205 396.956L479.23 396.932C476.256 395.336 473.51 393.088 471.656 390.501C467.779 385.134 469.224 380.383 474.859 379.899C479.302 379.512 485.033 381.894 489.151 385.557C487.839 381.664 489.669 378.642 494.112 378.255C499.759 377.772 507.465 381.749 511.33 387.116C513.762 390.489 514.099 393.62 512.606 395.602L506.177 409.251L481.59 398.044C480.939 397.778 480.289 397.488 479.651 397.162L479.218 396.968L479.205 396.956Z" fill="#F2F4F6"/>
<path d="M344.543 399.64C342.942 397.041 340.389 394.587 336.801 392.508C323.881 385.025 302.943 385.025 290.023 392.508C286.435 394.587 283.87 397.041 282.281 399.64H280.342V406.482H280.378C280.559 411.245 283.762 415.984 290.023 419.623C302.943 427.105 323.881 427.105 336.801 419.623C343.074 415.984 346.277 411.245 346.457 406.482H346.494V399.64H344.555H344.543Z" fill="#3E5B00"/>
<path d="M290.023 386.089C277.115 393.572 277.115 405.709 290.023 413.204C302.943 420.687 323.881 420.687 336.801 413.204C349.721 405.721 349.721 393.584 336.801 386.089C323.881 378.606 302.943 378.606 290.023 386.089Z" fill="#6E9C00"/>
<path d="M329.384 397.513C324.567 400.269 317.427 400.571 313.43 398.178C309.432 395.784 310.095 391.613 314.899 388.857C319.715 386.101 326.855 385.799 330.853 388.192C334.85 390.586 334.188 394.757 329.384 397.513Z" fill="#F2F4F6"/>
<path d="M311.25 412.708L288.566 399.156C295.056 395.433 305.399 395.445 311.66 399.193C317.921 402.94 317.74 408.985 311.238 412.708H311.25Z" fill="#F2F4F6"/>
<path d="M229.542 487.996C227.772 485.107 224.931 482.387 220.933 480.066C206.569 471.749 183.294 471.749 168.942 480.066C164.944 482.387 162.103 485.107 160.333 487.996H158.166V495.6H158.214C158.406 500.895 161.97 506.153 168.942 510.203C183.294 518.52 206.569 518.52 220.933 510.203C227.905 506.153 231.469 500.895 231.662 495.6H231.698V487.996H229.542Z" fill="#4B535E"/>
<path d="M168.943 472.921C154.59 481.238 154.59 494.741 168.943 503.058C183.295 511.375 206.57 511.375 220.934 503.058C235.287 494.741 235.287 481.238 220.934 472.921C206.57 464.604 183.295 464.604 168.943 472.921Z" fill="#838FA0"/>
<path d="M194.119 499.613L188.761 502.926C187.773 503.53 186.016 503.506 184.848 502.877L174.854 497.461C173.674 496.821 173.517 495.817 174.505 495.201L179.875 491.889C180.862 491.284 182.608 491.308 183.788 491.937L193.782 497.365C194.962 498.005 195.118 499.009 194.131 499.625L194.119 499.613Z" fill="#F2F4F6"/>
<path d="M185.209 489.991L195.925 495.805C196.912 496.337 198.357 496.482 199.634 496.168L202.752 495.394C203.258 495.273 203.727 495.08 204.113 494.838L212.878 489.423C216.238 487.343 216.984 484.285 214.708 481.855L209.037 475.774C207.568 474.203 203.836 473.961 201.656 475.315L194.974 479.449C194.287 479.872 193.144 479.86 192.518 479.425L190.772 478.192C188.363 476.5 185.281 475.17 181.765 474.324L181.669 474.3C180.369 473.985 178.839 474.191 177.852 474.795C176.491 475.629 176.6 476.935 178.057 477.648L181.765 479.437C182.307 479.703 182.716 480.042 182.945 480.441L184.679 483.499C185.329 484.648 185.353 485.893 184.739 487.077L184.27 487.972C183.896 488.709 184.246 489.495 185.185 490.003L185.209 489.991Z" fill="#F2F4F6"/>
</g>
<defs>
<clipPath id="clip0_40_204">
<rect width="692" height="536" fill="white"/>
</clipPath>
</defs>
</svg>
