<svg width="24" height="24" viewBox="0 0 24 24" fill="none" xmlns="http://www.w3.org/2000/svg">
<g clip-path="url(#clip0_236_517)">
<path d="M4 7.99658C4 6.93572 4.42143 5.9183 5.17157 5.16815C5.92172 4.41801 6.93913 3.99658 8 3.99658H16C17.0609 3.99658 18.0783 4.41801 18.8284 5.16815C19.5786 5.9183 20 6.93572 20 7.99658V15.9966C20 17.0574 19.5786 18.0749 18.8284 18.825C18.0783 19.5752 17.0609 19.9966 16 19.9966H8C6.93913 19.9966 5.92172 19.5752 5.17157 18.825C4.42143 18.0749 4 17.0574 4 15.9966V7.99658Z" stroke="#F2F4F6" stroke-width="2" stroke-linecap="round" stroke-linejoin="round"/>
<path d="M9 11.9966C9 12.7922 9.31607 13.5553 9.87868 14.1179C10.4413 14.6805 11.2044 14.9966 12 14.9966C12.7956 14.9966 13.5587 14.6805 14.1213 14.1179C14.6839 13.5553 15 12.7922 15 11.9966C15 11.2009 14.6839 10.4379 14.1213 9.87526C13.5587 9.31265 12.7956 8.99658 12 8.99658C11.2044 8.99658 10.4413 9.31265 9.87868 9.87526C9.31607 10.4379 9 11.2009 9 11.9966Z" stroke="#F2F4F6" stroke-width="2" stroke-linecap="round" stroke-linejoin="round"/>
<path d="M16.5 7.49658V7.50658" stroke="#F2F4F6" stroke-width="2" stroke-linecap="round" stroke-linejoin="round"/>
</g>
<defs>
<clipPath id="clip0_236_517">
<rect width="24" height="24" fill="white" transform="translate(0 -0.00341797)"/>
</clipPath>
</defs>
</svg>
