<svg width="158" height="54" viewBox="0 0 158 54" fill="none" xmlns="http://www.w3.org/2000/svg">
<path d="M27.0819 43.4108C36.1762 43.4108 43.5486 36.063 43.5486 26.9991C43.5486 17.9352 36.1762 10.5874 27.0819 10.5874C17.9876 10.5874 10.6152 17.9352 10.6152 26.9991C10.6152 36.063 17.9876 43.4108 27.0819 43.4108Z" fill="white"/>
<path d="M92.5437 28.2418V39.1379H88.0282V28.2418C88.0282 27.6339 88.0282 27.0241 88.0127 26.4162C88.003 26.0398 87.9894 25.6654 87.9507 25.291C87.9352 25.1463 87.9178 25.0016 87.8926 24.8588C87.8732 24.7526 87.8519 24.6484 87.8248 24.5442C87.8035 24.4631 87.7784 24.384 87.7474 24.3068C87.699 24.1794 87.637 24.0579 87.5654 23.9421C87.3408 23.5715 87.0193 23.2666 86.6611 23.0234C86.4055 22.8497 86.1305 22.7089 85.8459 22.5892C85.447 22.4213 85.0288 22.2978 84.6066 22.1974C84.0896 22.0739 83.5649 21.9852 83.0382 21.9253C82.4805 21.8636 81.917 21.8346 81.3555 21.8366C80.945 21.8366 80.5364 21.8559 80.1279 21.8906V39.1418H75.6123V18.1717C77.2892 17.7375 78.7802 17.4461 80.3835 17.3612C82.9085 17.2261 85.7142 17.6024 87.788 18.521C89.8619 19.4396 91.2018 20.9025 91.8718 22.4753C92.5418 24.0463 92.5418 25.7272 92.5418 28.2418H92.5437Z" fill="white"/>
<path d="M141.076 38.3659V28.2417C141.076 27.6338 141.076 27.0239 141.092 26.416C141.101 26.0397 141.115 25.6653 141.154 25.2909C141.169 25.1462 141.186 25.0014 141.212 24.8586C141.231 24.7525 141.252 24.6483 141.279 24.544C141.301 24.463 141.326 24.3839 141.357 24.3067C141.405 24.1793 141.467 24.0577 141.539 23.9419C141.764 23.5714 142.085 23.2665 142.443 23.0233C142.699 22.8496 142.974 22.7087 143.258 22.5891C143.657 22.4212 144.076 22.2977 144.498 22.1973C145.015 22.0738 145.539 21.985 146.066 21.9252C146.61 21.8634 147.16 21.8364 147.708 21.8364H148.974V17.3359H147.708C145.466 17.3359 143.113 17.7258 141.314 18.5228C139.24 19.4414 137.901 20.9043 137.231 22.4771C136.561 24.0481 136.561 25.729 136.561 28.2436V39.1397H141.076V38.3678V38.3659Z" fill="white"/>
<path d="M54.1694 28.2301V17.334H58.685V28.2301C58.685 28.838 58.685 29.4478 58.7005 30.0558C58.7102 30.4321 58.7237 30.8065 58.7624 31.1809C58.7779 31.3256 58.7954 31.4704 58.8205 31.6132C58.8399 31.7193 58.8612 31.8235 58.8883 31.9277C58.9096 32.0088 58.9348 32.0879 58.9658 32.1651C59.0142 32.2925 59.0761 32.4141 59.1478 32.5299C59.3724 32.9004 59.6938 33.2053 60.0521 33.4485C60.3077 33.6222 60.5826 33.7631 60.8673 33.8827C61.2661 34.0506 61.6844 34.1741 62.1065 34.2745C62.6235 34.398 63.1483 34.4868 63.6769 34.5466C64.2346 34.6083 64.7961 34.6373 65.3596 34.6354C65.7701 34.6354 66.1787 34.6161 66.5872 34.5813V17.334H71.1028V38.3002C69.4259 38.7344 67.9349 39.0258 66.3316 39.1108C63.8066 39.2459 61.0009 38.8695 58.927 37.9509C56.8532 37.0323 55.5133 35.5694 54.8433 33.9966C54.1733 32.4257 54.1733 30.7447 54.1733 28.2301H54.1694Z" fill="white"/>
<path d="M101.575 17.334H97.0596V39.1262H101.575V17.334Z" fill="white"/>
<path d="M125.305 25.9799C125.315 25.7502 125.328 25.5206 125.353 25.2909C125.369 25.1462 125.386 25.0014 125.411 24.8586C125.431 24.7525 125.452 24.6483 125.479 24.544C125.5 24.463 125.526 24.3839 125.557 24.3067C125.605 24.1793 125.667 24.0577 125.739 23.9419C125.963 23.5714 126.285 23.2665 126.643 23.0233C126.898 22.8496 127.173 22.7087 127.458 22.5891C127.857 22.4212 128.275 22.2977 128.697 22.1973C129.214 22.0738 129.739 21.985 130.266 21.9252C130.81 21.8634 131.36 21.8364 131.908 21.8364H133.174V17.3359H131.908C129.665 17.3359 127.313 17.7258 125.514 18.5228C123.44 19.4414 122.1 20.9043 121.43 22.4771C120.76 24.0481 120.76 25.729 120.76 28.2436C120.76 30.7583 120.76 32.4392 121.43 34.0101C122.1 35.581 123.44 37.0439 125.514 37.9644C127.315 38.7634 129.667 39.1513 131.908 39.1513H133.174V34.6489H131.908C131.36 34.6508 130.81 34.6219 130.266 34.5621C129.737 34.5022 129.214 34.4135 128.697 34.2899C128.275 34.1896 127.857 34.0661 127.458 33.8982C127.173 33.7785 126.898 33.6376 126.643 33.464C126.285 33.2208 125.963 32.9139 125.739 32.5434C125.667 32.4276 125.607 32.3041 125.557 32.1787C125.528 32.1015 125.502 32.0204 125.479 31.9413C125.452 31.8371 125.429 31.7329 125.411 31.6267C125.386 31.4839 125.367 31.3392 125.353 31.1944C125.328 30.957 125.315 30.7197 125.305 30.4823H129.791V25.9818H125.307L125.305 25.9799Z" fill="white"/>
<path d="M117.236 21.8345H118.502V17.334H117.236C114.994 17.334 112.641 17.7238 110.842 18.5209C108.768 19.4395 107.428 20.9023 106.758 22.4752C106.088 24.0461 106.088 25.727 106.088 28.2417V39.1378H110.604V30.4784H115.119V25.9779H110.635C110.645 25.7483 110.658 25.5186 110.683 25.289C110.699 25.1442 110.716 24.9995 110.741 24.8567C110.761 24.7505 110.782 24.6463 110.809 24.5421C110.83 24.461 110.856 24.3819 110.887 24.3047C110.935 24.1773 110.997 24.0558 111.069 23.94C111.293 23.5694 111.615 23.2645 111.973 23.0213C112.229 22.8477 112.503 22.7068 112.788 22.5871C113.187 22.4192 113.605 22.2957 114.027 22.1954C114.544 22.0718 115.069 21.9831 115.596 21.9232C116.14 21.8615 116.69 21.8345 117.238 21.8345H117.236Z" fill="white"/>
<path d="M32.9256 27.1999C30.542 26.4685 28.017 27.802 27.2831 30.1758C26.5492 32.5515 27.8873 35.068 30.269 35.7995C32.6526 36.5309 35.1776 35.1973 35.9115 32.8236C36.1787 31.9609 36.1787 31.0385 35.9115 30.1758C35.6849 30.6756 35.2841 31.0751 34.7826 31.3009C33.6459 31.8123 32.3099 31.3086 31.7967 30.1758C31.2836 29.043 31.789 27.7113 32.9256 27.1999Z" fill="#0F161E"/>
<path d="M27.0818 9.00098C17.1077 9.00098 9.02344 17.0582 9.02344 26.999C9.02344 36.9399 17.1077 44.9971 27.0818 44.9971C37.0559 44.9971 45.1402 36.9379 45.1402 26.999C45.1402 17.0602 37.0559 9.00098 27.0818 9.00098ZM27.0818 42.7469C18.3547 42.7469 11.2812 35.6951 11.2812 26.999C11.2812 18.303 18.3547 11.2512 27.0818 11.2512C35.8089 11.2512 42.8824 18.3011 42.8824 26.999C42.8824 35.697 35.807 42.7469 27.0818 42.7469Z" fill="#97D700"/>
</svg>
